<svg xmlns="http://www.w3.org/2000/svg" width="1200" height="780" viewBox="0 0 1200 780" role="img" aria-labelledby="title desc">
	<title id="title">Targeted update trajectory</title>
	<desc id="desc">Scatter and line chart comparing update success and hallucination-like rate for LoRA-SFT and LoRA-DPO across training checkpoints. Higher x is stronger insertion; lower y is cleaner behavior.</desc>
	<style>
		text { font-family: "IBM Plex Mono", "SFMono-Regular", monospace; fill: #070807; }
		.eyebrow { font-size: 13px; fill: #e83b24; }
		.title { font-family: "Arial Narrow", "Source Sans 3", sans-serif; font-weight: 700; font-size: 58px; letter-spacing: -0.02em; }
		.axis { font-size: 12px; fill: #667064; }
		.label { font-size: 13px; fill: #070807; }
		.grid { stroke: rgba(7,8,7,0.18); stroke-width: 1; }
		.axis-line { stroke: #070807; stroke-width: 2; }
		.sft { stroke: #e83b24; fill: none; stroke-width: 4; }
		.dpo { stroke: #070807; fill: none; stroke-width: 4; }
		.sft-dot { fill: #e83b24; stroke: #070807; stroke-width: 2; }
		.dpo-dot { fill: #e7ebe4; stroke: #070807; stroke-width: 3; }
		.card { fill: transparent; stroke: rgba(7,8,7,0.45); stroke-width: 1.5; }
	</style>
	<rect width="1200" height="780" fill="#e7ebe4"/>
	<text x="54" y="58" class="eyebrow">FIG 02 / TARGETED UPDATE TRAJECTORY</text>
	<text x="54" y="118" class="title">INSERTION HAS A COST CURVE</text>
	<text x="56" y="154" class="axis">Each point is one checkpoint over 75 targeted checks. X = update success. Y = hallucination-like rate; lower is cleaner.</text>

	<g transform="translate(0 70)">
		<path d="M120 570H900M120 455H900M120 340H900M120 225H900M120 110H900" class="grid"/>
		<path d="M120 110V570M315 110V570M510 110V570M705 110V570M900 110V570" class="grid"/>
		<path d="M120 570H900M120 110V570" class="axis-line"/>
		<text x="104" y="575" class="axis" text-anchor="end">10</text>
		<text x="104" y="460" class="axis" text-anchor="end">20</text>
		<text x="104" y="345" class="axis" text-anchor="end">30</text>
		<text x="104" y="230" class="axis" text-anchor="end">40</text>
		<text x="104" y="115" class="axis" text-anchor="end">50</text>
		<text x="120" y="596" class="axis" text-anchor="middle">0</text>
		<text x="315" y="596" class="axis" text-anchor="middle">10</text>
		<text x="510" y="596" class="axis" text-anchor="middle">20</text>
		<text x="705" y="596" class="axis" text-anchor="middle">30</text>
		<text x="900" y="596" class="axis" text-anchor="middle">40</text>
		<text x="510" y="642" class="axis" text-anchor="middle">UPDATE SUCCESS (%) / HIGHER INSERTION</text>
		<text x="34" y="340" class="axis" transform="rotate(-90 34 340)" text-anchor="middle">HALLUCINATION-LIKE RATE (%) / LOWER CLEANER</text>

		<polyline class="sft" points="666,348 848,317 640,179 666,179 770,148"/>
		<polyline class="dpo" points="406,486 562,440 458,470 354,470 354,424"/>

		<circle class="sft-dot" cx="666" cy="348" r="8"/><circle class="sft-dot" cx="848" cy="317" r="8"/><circle class="sft-dot" cx="640" cy="179" r="8"/><circle class="sft-dot" cx="666" cy="179" r="8"/><circle class="sft-dot" cx="770" cy="148" r="8"/>
		<circle class="dpo-dot" cx="406" cy="486" r="8"/><circle class="dpo-dot" cx="562" cy="440" r="8"/><circle class="dpo-dot" cx="458" cy="470" r="8"/><circle class="dpo-dot" cx="354" cy="470" r="8"/><circle class="dpo-dot" cx="354" cy="424" r="8"/>

		<text x="682" y="371" class="axis">200</text>
		<text x="865" y="304" class="label">SFT 400</text>
		<text x="616" y="172" class="axis">600</text>
		<text x="682" y="172" class="axis">800</text>
		<text x="784" y="142" class="label">SFT 834</text>
		<text x="421" y="509" class="axis">200</text>
		<text x="578" y="434" class="label">DPO 400</text>
		<text x="474" y="493" class="axis">600</text>
		<text x="311" y="493" class="axis">800</text>
		<text x="270" y="424" class="label">DPO 834</text>
	</g>

	<g transform="translate(950 182)">
		<rect class="card" x="0" y="0" width="196" height="112"/>
		<text x="18" y="30" class="eyebrow">SFT PEAK</text>
		<text x="18" y="58" class="label">37.33% success</text>
		<text x="18" y="78" class="axis">32.00% side-effect</text>
		<text x="18" y="96" class="axis">step 400</text>
	</g>
	<g transform="translate(950 300)">
		<rect class="card" x="0" y="0" width="196" height="112"/>
		<text x="18" y="30" class="eyebrow">DPO PEAK</text>
		<text x="18" y="58" class="label">22.67% success</text>
		<text x="18" y="78" class="axis">21.33% side-effect</text>
		<text x="18" y="96" class="axis">step 400</text>
	</g>
	<g transform="translate(950 418)">
		<rect class="card" x="0" y="0" width="196" height="112"/>
		<text x="18" y="30" class="eyebrow">READING</text>
		<text x="18" y="58" class="label">More insertion</text>
		<text x="18" y="80" class="label">can buy noise.</text>
		<text x="18" y="100" class="axis">Step order is shown as trajectory.</text>
	</g>
</svg>
